HIERARCHY
ROOT Hips
{
	OFFSET 0.00000 0.00000 0.00000
	CHANNELS 6 Xposition Yposition Zposition Zrotation Yrotation Xrotation 
	JOINT LHipJoint
	{
		OFFSET 0 0 0
		CHANNELS 3 Zrotation Yrotation Xrotation
		JOINT LeftUpLeg
		{
			OFFSET 1.28366 -1.58472 0.87544
			CHANNELS 3 Zrotation Yrotation Xrotation
			JOINT LeftLeg
			{
				OFFSET 2.18587 -6.00562 0.00000
				CHANNELS 3 Zrotation Yrotation Xrotation
				JOINT LeftFoot
				{
					OFFSET 2.39085 -6.56880 0.00000
					CHANNELS 3 Zrotation Yrotation Xrotation
					JOINT LeftToeBase
					{
						OFFSET 0.12003 -0.32979 2.03101
						CHANNELS 3 Zrotation Yrotation Xrotation
						End Site
						{
							OFFSET 0.00000 -0.00000 1.04074
						}
					}
				}
			}
		}
	}
	JOINT RHipJoint
	{
		OFFSET 0 0 0
		CHANNELS 3 Zrotation Yrotation Xrotation
		JOINT RightUpLeg
		{
			OFFSET -1.21795 -1.58472 0.87544
			CHANNELS 3 Zrotation Yrotation Xrotation
			JOINT RightLeg
			{
				OFFSET -2.22714 -6.11902 0.00000
				CHANNELS 3 Zrotation Yrotation Xrotation
				JOINT RightFoot
				{
					OFFSET -2.40306 -6.60235 0.00000
					CHANNELS 3 Zrotation Yrotation Xrotation
					JOINT RightToeBase
					{
						OFFSET -0.15519 -0.42640 1.91430
						CHANNELS 3 Zrotation Yrotation Xrotation
						End Site
						{
							OFFSET -0.00000 -0.00000 0.99082
						}
					}
				}
			}
		}
	}
	JOINT LowerBack
	{
		OFFSET 0 0 0
		CHANNELS 3 Zrotation Yrotation Xrotation
		JOINT Spine
		{
			OFFSET 0.01180 1.76430 -0.06387
			CHANNELS 3 Zrotation Yrotation Xrotation
			JOINT Spine1
			{
				OFFSET -0.00388 1.74651 0.09536
				CHANNELS 3 Zrotation Yrotation Xrotation
				JOINT Neck
				{
					OFFSET 0 0 0
					CHANNELS 3 Zrotation Yrotation Xrotation
					JOINT Neck1
					{
						OFFSET 0.04111 1.46174 0.14397
						CHANNELS 3 Zrotation Yrotation Xrotation
						JOINT Head
						{
							OFFSET 0.00502 1.44580 -0.31711
							CHANNELS 3 Zrotation Yrotation Xrotation
							End Site
							{
								OFFSET -0.00395 1.49251 -0.12327
							}
						}
					}
				}
				JOINT LeftShoulder
				{
					OFFSET 0 0 0
					CHANNELS 3 Zrotation Yrotation Xrotation
					JOINT LeftArm
					{
						OFFSET 2.70917 1.34870 -0.15417
						CHANNELS 3 Zrotation Yrotation Xrotation
						JOINT LeftForeArm
						{
							OFFSET 4.46610 -0.00000 -0.00000
							CHANNELS 3 Zrotation Yrotation Xrotation
							JOINT LeftHand
							{
								OFFSET 3.41414 -0.00000 0.00000
								CHANNELS 3 Zrotation Yrotation Xrotation
								JOINT LeftFingerBase
								{
									OFFSET 0 0 0
									CHANNELS 3 Zrotation Yrotation Xrotation
									JOINT LeftHandIndex1
									{
										OFFSET 0.32830 -0.00000 0.00000
										CHANNELS 3 Zrotation Yrotation Xrotation
										End Site
										{
											OFFSET 0.26468 -0.00000 0.00000
										}
									}
								}
								JOINT LThumb
								{
									OFFSET 0 0 0
									CHANNELS 3 Zrotation Yrotation Xrotation
									End Site
									{
										OFFSET 0.26872 -0.00000 0.26872
									}
								}
							}
						}
					}
				}
				JOINT RightShoulder
				{
					OFFSET 0 0 0
					CHANNELS 3 Zrotation Yrotation Xrotation
					JOINT RightArm
					{
						OFFSET -3.06316 1.13725 -0.10883
						CHANNELS 3 Zrotation Yrotation Xrotation
						JOINT RightForeArm
						{
							OFFSET -4.40431 -0.00000 0.00000
							CHANNELS 3 Zrotation Yrotation Xrotation
							JOINT RightHand
							{
								OFFSET -3.04688 -0.00000 0.00000
								CHANNELS 3 Zrotation Yrotation Xrotation
								JOINT RightFingerBase
								{
									OFFSET 0 0 0
									CHANNELS 3 Zrotation Yrotation Xrotation
									JOINT RightHandIndex1
									{
										OFFSET -0.50049 -0.00000 0.00000
										CHANNELS 3 Zrotation Yrotation Xrotation
										End Site
										{
											OFFSET -0.40351 -0.00000 0.00000
										}
									}
								}
								JOINT RThumb
								{
									OFFSET 0 0 0
									CHANNELS 3 Zrotation Yrotation Xrotation
									End Site
									{
										OFFSET -0.40967 -0.00000 0.40967
									}
								}
							}
						}
					}
				}
			}
		}
	}
}
MOTION
Frames: 14
Frame Time: 0.00689655
0.00 0.00 0.00 -175.5610 -114.6910 902.3710 0.0000 0.0000 0.0000 -12.4419 7.5037 -43.3533 10.9323 17.9018 62.5616 -0.1821 -9.6561 9.9604 0.1196 2.2294 6.1401 0.0000 0.0000 0.0000 13.1543 -1.9759 -22.7082 -4.9080 -13.2794 40.4235 -0.2543 -15.4164 -24.2902 -0.1029 -2.0681 5.6939 -2.0822 2.8687 7.4368 -1.2045 3.4245 -6.6950 -0.7198 1.7245 -11.4374 14.1085 14.9187 -11.4212 -4.5002 18.6688 16.5622 -1.3745 9.3218 8.7851 -0.0000 0.0000 0.0000 -8.8294 -18.3011 60.6954 128.4693 -53.5945 -92.5986 -0.0000 0.0000 -9.8179 50.4152 10.9547 12.9437 -7.1250 0.0000 -0.0000 22.0516 45.6401 0.3664 -0.0000 0.0000 0.0000 28.7691 -8.3177 -3.6354 -122.6041 55.5751 -87.8165 0.0000 -0.0000 -36.0158 -51.5516 27.9646 -30.5666 7.1250 -0.0000 -0.0000 -11.8257 9.7553 -13.9329
0.00 0.00 0.00 -184.2780 -119.0710 910.0170 0.0000 0.0000 0.0000 -7.1774 8.5696 -54.9986 16.9799 19.7799 81.1386 1.1007 -4.0944 21.6900 1.2971 7.2157 20.3560 0.0000 0.0000 0.0000 18.9486 -6.7756 -21.8480 -4.0259 -12.1948 36.4245 -0.9021 -9.5934 -23.8426 -0.0070 0.5404 -1.4850 -0.4166 1.7801 9.2925 0.5623 2.3578 -6.9222 0.3780 1.1635 -12.8263 14.3177 14.5727 -10.9113 -5.0658 18.3003 15.7873 -1.7021 9.1255 8.4765 -0.0000 -0.0000 0.0000 -8.6100 -21.1377 62.7099 133.6872 -51.3956 -96.7398 -0.0000 0.0000 -5.5590 52.0434 8.2427 10.4141 -7.1250 0.0000 -0.0000 22.6267 42.0545 -1.7431 -0.0000 -0.0000 0.0000 24.1621 -6.7401 -16.3861 -103.0796 59.3436 -71.3023 0.0000 -0.0000 -52.3314 -42.4257 17.4843 -15.3545 7.1250 -0.0000 -0.0000 -9.2360 -7.1173 -8.1296
0.00 0.00 0.00 -191.7840 -120.4110 914.9940 0.0000 0.0000 0.0000 -1.9132 13.4267 -64.4634 24.0033 19.6113 101.7782 2.7215 -4.7926 33.1310 1.6370 8.0652 22.9122 0.0000 0.0000 0.0000 23.8384 -10.6522 -20.9153 -3.6468 -11.6749 34.5914 -0.8370 -8.0580 -22.0132 -0.0299 1.1164 -3.0691 1.0898 1.4779 12.4748 2.3880 2.4754 -6.7928 1.4473 1.1777 -14.6962 14.6419 14.5744 -10.6096 -5.3120 18.3401 15.8240 -1.8338 9.1487 8.4983 -0.0000 0.0000 0.0000 -10.4155 -22.2632 65.0150 137.1094 -49.6922 -99.3828 -0.0000 0.0000 -2.1117 53.5045 6.5780 8.8018 -7.1250 0.0000 -0.0000 23.3097 39.7996 -3.1906 -0.0000 0.0000 0.0000 18.7171 -1.8953 -27.6962 -75.2710 59.1642 -47.2801 0.0000 -0.0000 -68.5276 -33.1231 6.0522 -3.9353 7.1250 -0.0000 -0.0000 -4.6990 -22.7716 -2.5222
0.00 0.00 0.00 -196.8520 -118.8360 918.1370 0.0000 0.0000 0.0000 0.8714 25.8970 -72.6643 30.2242 17.2818 121.2638 4.4223 -8.5610 43.1959 1.7446 8.3126 23.6675 0.0000 0.0000 0.0000 26.2239 -11.5672 -19.3691 -3.4732 -11.4243 33.7245 -0.9129 -5.9635 -21.1585 -0.0523 1.4762 -4.0602 0.5356 1.8398 14.5655 3.3776 3.0410 -6.4258 2.6912 1.5577 -15.6951 15.4228 14.8079 -11.0915 -4.5895 18.3142 16.4252 -1.6486 9.2289 8.7911 0.0000 -0.0000 0.0000 -11.6353 -21.1151 66.5951 140.4182 -47.8202 -101.8713 -0.0000 0.0000 -0.5519 55.5433 5.4919 7.9402 -7.1250 0.0000 -0.0000 24.6511 38.3962 -4.3271 0.0000 -0.0000 0.0000 13.9533 4.0674 -39.0395 -50.4801 53.1873 -26.5580 0.0000 -0.0000 -85.2096 -27.7272 -0.8504 0.4469 7.1250 -0.0000 -0.0000 -0.9227 -30.9397 -0.3171
0.00 0.00 0.00 -197.4040 -116.7760 918.5320 0.0000 0.0000 0.0000 -0.2514 49.6589 -81.5028 35.0634 13.3121 139.4519 4.6402 -19.0366 49.8370 1.7031 8.2182 23.3787 0.0000 0.0000 0.0000 26.1014 -11.6662 -18.7877 -3.4364 -11.3701 33.5384 -1.0288 -4.0369 -21.0189 -0.0717 1.7281 -4.7547 -2.8520 2.3764 14.3381 3.4378 3.0717 -5.9776 4.6788 1.9178 -15.2353 16.2632 14.8059 -11.2042 -3.8505 17.9140 15.2213 -1.6138 9.1348 8.3694 -0.0000 -0.0000 0.0000 -12.1167 -19.2806 67.8773 143.0499 -46.1555 -103.7959 -0.0000 -0.0000 2.9382 58.0206 7.7177 12.1386 -7.1250 0.0000 -0.0000 28.1151 42.3996 -1.9768 -0.0000 -0.0000 0.0000 9.4311 9.2833 -52.7541 -31.3499 42.0227 -12.3034 0.0000 -0.0000 -92.4135 -25.3715 -3.4989 1.6578 7.1250 -0.0000 -0.0000 1.0231 -33.8498 0.2798
0.00 0.00 0.00 -205.4040 -117.0840 923.6440 0.0000 0.0000 0.0000 -0.2359 31.9726 -86.3212 32.9418 15.3807 130.9059 1.8371 -8.1946 29.6557 1.3440 7.3398 20.7260 0.0000 0.0000 0.0000 27.4961 -16.5843 -20.3983 -5.1436 -13.5437 41.4394 -1.7198 1.9076 -24.2720 -0.3822 3.9703 -10.9930 -2.4329 3.1096 15.0591 4.5382 4.2592 -4.6815 5.3354 2.4566 -14.3465 16.5302 14.2352 -11.5646 -3.9792 16.9740 13.5411 -1.8703 8.6605 7.8058 0.0000 -0.0000 0.0000 -16.2582 -15.9716 66.5167 145.2559 -44.6286 -105.3667 -0.0000 0.0000 -13.4807 52.7452 6.0225 7.8545 -7.1250 0.0000 -0.0000 22.4097 38.8541 -3.6090 0.0000 -0.0000 0.0000 14.4964 9.2621 -53.1948 -32.8227 43.1933 -13.3006 0.0000 -0.0000 -96.6047 -29.3425 -4.2156 2.3663 7.1250 -0.0000 -0.0000 -2.2375 -34.8062 -0.5604
0.00 0.00 0.00 -205.4120 -115.6150 923.7890 0.0000 0.0000 0.0000 4.2709 20.1738 -79.0506 28.3828 18.2241 115.2299 0.3874 -3.0151 13.2539 1.2065 6.9685 19.6220 0.0000 0.0000 0.0000 25.3113 -15.5784 -21.8042 -6.2881 -14.7018 46.1271 -1.9823 2.2945 -26.0196 -0.5296 4.6632 -12.9505 -2.2367 3.6304 15.0707 4.2185 4.9619 -4.5362 4.6554 2.7395 -14.2138 16.4765 14.4666 -11.1836 -4.9730 17.5479 13.2241 -2.1225 8.8562 7.7801 -0.0000 0.0000 0.0000 -16.7656 -12.5382 58.3467 143.8803 -45.5953 -104.3921 -0.0000 0.0000 -18.1098 44.6727 9.6292 9.3901 -7.1250 0.0000 -0.0000 16.0860 42.8127 -0.8932 -0.0000 0.0000 0.0000 19.5195 7.2792 -44.6775 -50.9615 53.3760 -26.9440 0.0000 -0.0000 -101.5030 -32.1058 -3.9567 2.4791 7.1250 -0.0000 -0.0000 -4.5251 -34.6202 -1.1560
0.00 0.00 0.00 -207.0930 -114.6940 924.8640 0.0000 0.0000 0.0000 11.9987 12.4085 -68.1901 22.2722 19.8758 96.6568 0.0755 -4.7998 9.0095 0.2702 3.3436 9.2370 0.0000 0.0000 0.0000 23.4164 -13.9738 -19.6064 -6.4083 -14.8127 46.5992 -1.9631 0.9255 -26.2496 -0.7161 5.4078 -15.0754 -0.4351 3.7052 15.5449 4.1063 5.4031 -4.2170 3.3608 2.7649 -13.9720 15.8399 14.6932 -10.3532 -5.6257 18.1800 11.9362 -2.2496 9.0886 7.2815 -0.0000 -0.0000 0.0000 -14.5903 -9.4139 47.5848 135.7798 -50.3807 -98.3636 -0.0000 0.0000 -20.2945 35.0072 14.1942 9.7451 -7.1250 0.0000 -0.0000 7.2374 47.0104 0.3609 -0.0000 -0.0000 0.0000 22.6099 3.5222 -32.3570 -81.1697 59.7033 -52.3604 0.0000 -0.0000 -103.2410 -30.7578 -3.6858 2.1909 7.1250 -0.0000 -0.0000 -3.4050 -34.2517 -0.8994
0.00 0.00 0.00 -207.1990 -114.3360 925.8660 0.0000 0.0000 0.0000 15.2633 7.8465 -59.9696 17.6797 19.8704 83.2018 0.0654 -3.7295 7.5980 0.1849 2.7698 7.6385 0.0000 0.0000 0.0000 21.9816 -12.2988 -16.4707 -5.3308 -13.7469 42.2327 -1.5490 -1.5032 -24.1058 -0.9875 6.3250 -17.7304 0.2845 3.5766 13.8074 3.9731 5.3185 -4.4535 2.9100 2.6662 -13.0956 15.4082 14.6945 -9.9393 -5.0920 18.2099 11.3942 -2.0779 9.1299 6.9451 -0.0000 -0.0000 0.0000 -12.4258 -8.6246 42.9294 123.8914 -55.1805 -88.8758 -0.0000 0.0000 -23.6017 27.4647 15.1876 7.7544 -7.1250 0.0000 -0.0000 -0.1359 46.9910 -0.0067 -0.0000 -0.0000 0.0000 23.7873 0.0994 -23.2847 -103.4261 59.3078 -71.6003 0.0000 -0.0000 -102.1070 -27.3215 -4.2291 2.1818 7.1250 -0.0000 -0.0000 -0.5617 -34.7372 -0.1415
0.00 0.00 0.00 -206.0870 -113.0340 926.4310 0.0000 0.0000 0.0000 15.1171 3.8349 -50.0216 12.7192 18.6784 68.2509 0.1996 0.2522 8.3510 0.1947 2.8415 7.8377 0.0000 0.0000 0.0000 19.5388 -9.2802 -11.7496 -3.6934 -11.7408 34.8211 -0.7717 -5.2317 -19.3015 -1.2035 6.9602 -19.5974 0.5623 3.7742 10.8245 3.5437 5.5204 -5.1170 2.3852 2.7368 -11.9817 14.9637 14.4887 -10.1077 -3.6639 17.7618 12.0084 -1.6204 9.0035 6.9552 0.0000 -0.0000 0.0000 -11.1355 -8.9629 41.2313 106.2038 -58.9843 -73.9851 -0.0000 0.0000 -26.6935 18.6684 16.1611 5.3724 -7.1250 0.0000 -0.0000 -8.6399 46.8020 -0.3870 0.0000 -0.0000 0.0000 24.6749 -3.6608 -14.0767 -121.0259 56.0303 -86.5111 0.0000 -0.0000 -100.0300 -21.6043 -4.0886 1.6174 7.1250 -0.0000 -0.0000 4.1498 -34.3535 1.0866
0.00 0.00 0.00 -204.8460 -110.4860 927.1920 0.0000 0.0000 0.0000 12.0402 -0.3309 -38.8045 7.9415 16.0760 52.3516 0.4680 -2.3306 13.9823 0.0046 -0.4393 -1.2071 0.0000 0.0000 0.0000 16.2000 -5.0917 -8.1221 -2.5739 -9.9711 28.8833 0.1967 -10.9156 -12.0901 -1.0179 6.4188 -18.0044 1.7424 4.1866 7.7196 2.8110 6.0732 -5.9663 1.0206 2.8932 -10.8739 14.4887 14.3929 -10.9911 -2.5093 17.4151 13.4813 -1.1399 8.9087 7.4082 0.0000 -0.0000 0.0000 -10.6266 -9.0159 40.6654 85.0212 -59.9061 -55.6896 -0.0000 0.0000 -29.5582 12.8312 15.2360 3.4254 -7.1250 0.0000 -0.0000 -13.7303 45.1331 -0.0460 0.0000 -0.0000 0.0000 23.5072 -6.4673 -3.5154 -132.7524 51.8232 -96.0071 0.0000 -0.0000 -96.5056 -15.1679 -3.2216 0.8728 7.1250 -0.0000 -0.0000 9.3027 -33.2132 2.7181
0.00 0.00 0.00 -204.1920 -102.8190 929.8540 0.0000 0.0000 0.0000 -0.8346 0.0900 -25.4625 4.3151 12.5683 37.7732 -0.0739 4.9905 -0.4275 1.1580 -6.8318 -19.2180 0.0000 0.0000 0.0000 10.6805 -2.3501 -14.6181 -3.2920 -11.1534 32.7989 2.1201 -24.7286 -9.7764 -0.4644 -4.3709 12.1226 4.5655 5.5930 3.8215 1.7579 7.9406 -7.0773 -1.5591 3.5702 -9.2751 14.7088 14.7511 -11.2002 -4.1146 18.1734 14.2169 -1.5057 9.1548 7.9255 -0.0000 0.0000 0.0000 -10.0339 -7.5705 40.1270 52.3213 -53.8899 -28.0389 -0.0000 0.0000 -27.4678 3.4509 16.1000 0.9580 -7.1250 0.0000 -0.0000 -22.3536 44.8595 0.0818 -0.0000 0.0000 0.0000 15.0073 -5.2586 16.7962 -144.4553 45.1972 -104.8014 0.0000 -0.0000 -90.7673 -6.2682 -1.9713 0.2165 7.1250 -0.0000 -0.0000 16.1668 -31.6801 5.4596
0.00 0.00 0.00 -185.3380 -97.4336 911.7440 0.0000 0.0000 0.0000 -11.5191 3.6700 -24.0689 4.0844 12.2719 36.7009 -0.0378 5.4854 -6.5378 1.3259 -7.2922 -20.5840 0.0000 0.0000 0.0000 12.5857 -11.2552 -30.3527 -7.6834 -15.8814 51.4142 -0.0078 -7.5180 -10.8906 -0.0053 0.4708 -1.2938 0.9551 6.0445 5.1976 1.0467 8.2475 -7.0385 -0.5659 3.9274 -10.4315 15.3743 15.4588 -10.1433 -6.4351 19.5380 12.3110 -2.2307 9.6656 7.5474 0.0000 0.0000 0.0000 -9.2810 -6.0828 39.2745 35.7533 -45.3426 -15.3468 -0.0000 0.0000 -21.5065 2.7827 13.6416 0.6568 -7.1250 0.0000 -0.0000 -22.0101 42.5101 1.4280 0.0000 0.0000 0.0000 10.8024 1.0624 31.2656 -149.4560 41.3552 -108.2326 0.0000 -0.0000 -83.0667 0.0707 -1.2146 -0.0015 7.1250 -0.0000 -0.0000 20.8687 -30.7395 7.7345
0.00 0.00 0.00 -153.7980 -100.3280 880.9510 0.0000 0.0000 0.0000 -12.9071 3.8719 -28.7760 5.3795 13.7988 42.4376 0.7327 -2.7902 -15.4656 1.4250 -7.5488 -21.3517 0.0000 0.0000 0.0000 11.3220 -8.9275 -40.3475 -13.2085 -18.8562 69.7720 -0.1892 -9.7394 -16.6648 -0.0048 0.4452 -1.2232 2.2714 6.3345 6.8065 -2.1277 8.5543 -6.1673 -4.7716 3.8857 -9.7077 12.5831 14.2812 -12.7960 -6.0607 18.0756 14.0116 -1.7593 8.7989 8.1046 -0.0000 -0.0000 0.0000 -15.1226 -14.2571 20.7656 14.4849 -23.4237 -3.0182 -0.0000 -0.0000 1.2375 2.7456 8.5478 0.4084 -7.1250 0.0000 -0.0000 -20.4432 37.7567 3.8404 -0.0000 -0.0000 0.0000 22.4752 11.0275 66.6824 -142.8577 46.2827 -103.6572 0.0000 -0.0000 -25.1830 0.6396 5.5735 0.0621 7.1250 -0.0000 -0.0000 20.0424 -24.3648 10.6261
